<?xml version="1.0" encoding="UTF-8"?><svg id="_圖層_2" xmlns="http://www.w3.org/2000/svg" width="716.78" height="146.48" viewBox="0 0 716.78 146.48"><g id="_圖層_1-2"><path d="m138.13,3.47c-3.38-2.83-7.82-4.01-12.21-3.23h0c-6.59,1.17-11.49,8.28-12.11,15.02C101.61,6.39,86.9,1.57,71.73,1.57,32.18,1.57,0,33.75,0,73.3s32.18,71.73,71.73,71.73c15.17,0,29.89-4.82,42.09-13.68.71,7.42,6.62,14.72,14.04,15.09.25.01.51.02.76.02,3.83,0,7.43-1.44,10.22-4.1,2.94-2.79,4.62-6.72,4.62-10.76V14.85c0-4.4-1.94-8.55-5.32-11.38Zm-24.39,69.83c0,23.17-18.85,42.02-42.02,42.02s-42.02-18.85-42.02-42.02,18.85-42.02,42.02-42.02,42.02,18.85,42.02,42.02Z" fill="#0061e3"/><path d="m368.88,73.3l47.78-47.78c2.8-2.8,4.35-6.53,4.35-10.5s-1.54-7.7-4.35-10.5c-2.8-2.8-6.53-4.35-10.5-4.34-3.97,0-7.7,1.54-10.5,4.35l-47.78,47.78-47.78-47.78c-5.79-5.79-15.22-5.79-21.01,0-5.79,5.79-5.79,15.22,0,21.01l47.78,47.78-47.78,47.78c-5.79,5.79-5.79,15.22,0,21.01,5.79,5.79,15.22,5.79,21.01,0l47.78-47.78,47.78,47.78c2.9,2.9,6.7,4.34,10.5,4.34,3.8,0,7.61-1.45,10.5-4.34,5.79-5.79,5.79-15.21,0-21.01l-47.78-47.78ZM406.1,6.66c4.59,0,8.31,3.72,8.31,8.31s-3.72,8.31-8.31,8.31-8.31-3.72-8.31-8.31,3.72-8.31,8.31-8.31Zm0,133.09c-4.59,0-8.31-3.72-8.31-8.31s3.72-8.31,8.31-8.31,8.31,3.72,8.31,8.31-3.72,8.31-8.31,8.31Z" fill="#0061e3"/><path d="m239.95,0C231.76,0,225.09,6.66,225.09,14.85v116.72c0,8.19,6.66,14.85,14.85,14.85s14.85-6.66,14.85-14.85V14.85C254.8,6.66,248.14,0,239.95,0Z" fill="#0061e3"/><path d="m184.71,0C176.52,0,169.86,6.66,169.86,14.85v116.72c0,8.19,6.66,14.85,14.85,14.85s14.86-6.66,14.86-14.85V14.85C199.57,6.66,192.9,0,184.71,0Z" fill="#0061e3"/><path d="m496.06,1.57c-39.55,0-71.73,32.18-71.73,71.73s32.18,71.73,71.73,71.73,71.73-32.18,71.73-71.73S535.61,1.57,496.06,1.57Zm42.02,71.73c0,23.17-18.85,42.02-42.02,42.02s-42.02-18.85-42.02-42.02,18.85-42.02,42.02-42.02,42.02,18.85,42.02,42.02Z" fill="#0061e3"/><path d="m702.4,0c-9.05,0-15.33,7.7-15.33,14.8v78.94L610.33,5.6C606.65,1.82,603.43,0,598.1,0s-14.26,3.76-14.26,14.85v116.24c0,8.19,5.82,15.39,14.84,15.39s14.87-7.71,14.87-15.39V53.5s71.07,80.85,76,86.35c4.93,5.5,9.43,6.58,13.39,6.58,7.57,0,13.83-6.98,13.83-14.8V14.8C716.78,7.6,709.88,0,702.4,0Z" fill="#0061e3"/></g></svg>